<?xml version="1.0" encoding="UTF-8" standalone="no"?>
<svg
   id="e06b9492-c94f-49a5-a08c-05dd44269c94"
   data-name="Calque 1"
   width="32"
   height="32"
   viewBox="0 0 32 32"
   version="1.1"
   sodipodi:docname="bl.svg"
   inkscape:version="1.2.1 (9c6d41e410, 2022-07-14)"
   xmlns:inkscape="http://www.inkscape.org/namespaces/inkscape"
   xmlns:sodipodi="http://sodipodi.sourceforge.net/DTD/sodipodi-0.dtd"
   xmlns="http://www.w3.org/2000/svg"
   xmlns:svg="http://www.w3.org/2000/svg"
   xmlns:rdf="http://www.w3.org/1999/02/22-rdf-syntax-ns#"
   xmlns:cc="http://creativecommons.org/ns#"
   xmlns:dc="http://purl.org/dc/elements/1.1/">
  <defs
     id="defs54" />
  <sodipodi:namedview
     id="namedview52"
     pagecolor="#ffffff"
     bordercolor="#000000"
     borderopacity="0.25"
     inkscape:showpageshadow="2"
     inkscape:pageopacity="0.0"
     inkscape:pagecheckerboard="0"
     inkscape:deskcolor="#d1d1d1"
     showgrid="false"
     inkscape:zoom="52.3125"
     inkscape:cx="15.866189"
     inkscape:cy="9.9020311"
     inkscape:window-width="1920"
     inkscape:window-height="1017"
     inkscape:window-x="1912"
     inkscape:window-y="-8"
     inkscape:window-maximized="1"
     inkscape:current-layer="e06b9492-c94f-49a5-a08c-05dd44269c94" />
  <title
     id="title29">doc-40-IconeFactureVenteDirecte</title>
  <g
     id="g35">
    <path
       d="M6.17,31.51a2,2,0,0,1-2-2v-27a2,2,0,0,1,2-2H19.63A2,2,0,0,1,21,1.09l5.54,5.54A2,2,0,0,1,27.17,8V29.51a2,2,0,0,1-2,2Z"
       style="fill: #fff"
       id="path31" />
    <path
       d="M 26.771858,6.5097646 26.67,29.51 c -0.0037,0.828418 -0.671573,1.5 -1.5,1.5 h -19 c -0.8284271,0 -1.5065303,-0.671599 -1.5,-1.5 L 4.8503658,6.6297851 C 7.2343031,6.4473957 16.218891,6.4583342 16.218891,6.4583342 M 6.17,0 C 4.7892881,0 3.67,1.1192881 3.67,2.5 v 27 c 0,1.380712 1.1192881,2.5 2.5,2.5 h 19 c 1.380712,0 2.5,-1.119288 2.5,-2.5 V 8 C 27.71176,5.4317701 27.65849,2.8114319 27.7178,-0.03419355 21.130262,0.01398389 11.0614,0 6.17,0 Z"
       style="fill:#3b87d7;fill-opacity:1"
       id="path33"
       sodipodi:nodetypes="csssscccsssssccc" />
  </g>
  <g
     id="g49"
     transform="matrix(0.56033453,0,0,0.71832619,7.2258065,8.1949496)">
    <path
       d="m 18.74,15.42 a 1.26,1.26 0 0 0 -0.55,-0.23 1.46,1.46 0 0 0 -0.72,0.17 l -0.88,0.48 -1,1.7 a 2.07,2.07 0 0 1 -0.63,0.62 1.94,1.94 0 0 1 -2.86,-2.3 2.72,2.72 0 0 1 0.11,-0.25 l 1.1,-2.09 a 2.25,2.25 0 0 1 0.41,-0.5 3.48,3.48 0 0 1 0.93,-0.56 c 0.26,-0.12 0.63,-0.31 1.07,-0.56 A 1.36,1.36 0 0 0 15.55,11.73 1.72,1.72 0 0 0 15.2,11.5 v 0 a 1.48,1.48 0 0 0 -0.72,-0.15 h -0.54 c 0,0 -0.42,0 -0.77,0.07 A 24.84,24.84 0 0 0 8.09,13.11 2.26,2.26 0 0 1 7.21,13.35 2.55,2.55 0 0 1 6.35,13.22 6.13,6.13 0 0 1 5.15,12.77 c -0.48,-0.23 -1.19,-0.53 -2.36,-1 0,0 -1,8.18 -1,8.2 l 4.65,1.24 a 2.74,2.74 0 0 1 0.36,-0.59 3.48,3.48 0 0 1 2.4,-1.24 2.06,2.06 0 0 1 0.87,0.19 2.2,2.2 0 0 1 1,1.08 2.11,2.11 0 0 1 1,0.1 2,2 0 0 1 0.6,0.36 2.06,2.06 0 0 1 0.74,1.46 2,2 0 0 1 0.88,0.43 2.08,2.08 0 0 1 0.71,1.36 1.94,1.94 0 0 1 0.9,0.39 2,2 0 0 1 0.71,1.39 2.59,2.59 0 0 1 -0.23,1.18 1.62,1.62 0 0 0 0.49,0.2 1.18,1.18 0 0 0 0.48,0 0.83,0.83 0 0 0 0.35,-0.1 1.22,1.22 0 0 0 0.3,-1.54 2.21,2.21 0 0 0 0.93,0.39 1.44,1.44 0 0 0 0.46,0 1.09,1.09 0 0 0 0.39,-0.15 1.07,1.07 0 0 0 0.36,-1.27 1.94,1.94 0 0 0 -0.22,-0.49 v 0 a 2.39,2.39 0 0 0 0.38,0.32 2.57,2.57 0 0 0 0.36,0.2 1.9,1.9 0 0 0 0.37,0.13 1.76,1.76 0 0 0 0.44,0 1.45,1.45 0 0 0 0.41,-0.09 1,1 0 0 0 0.34,-0.2 1.54,1.54 0 0 0 -0.22,-2.2 3.43,3.43 0 0 0 0.6,0.33 1.39,1.39 0 0 0 0.52,0.12 1.13,1.13 0 0 0 0.35,-0.07 1.34,1.34 0 0 0 0.28,-0.16 c 0.58,-0.48 0.34,-1.22 -0.1,-1.86 v 0 C 23.28,20.52 19.2,15.94 18.74,15.42 Z"
       style="fill:#dabca6"
       id="path39" />
    <path
       d="m 29.81,18.81 -1,-6.4 -4,1.23 a 2.22,2.22 0 0 1 -0.88,0.09 2.34,2.34 0 0 1 -0.89,-0.3 c 0,0 -2.1,-1.11 -2.62,-1.43 A 2.59,2.59 0 0 0 19,11.6 3.07,3.07 0 0 0 17.7,12 c -1,0.48 -3.26,1.71 -3.26,1.72 l -0.07,0.06 a 0.87,0.87 0 0 0 -0.19,0.23 l -1.1,2.08 a 0.43,0.43 0 0 0 -0.05,0.12 0.93,0.93 0 0 0 0.09,0.81 0.94,0.94 0 0 0 1.3,0.3 1.11,1.11 0 0 0 0.31,-0.3 l 1.14,-1.91 1.1,-0.6 a 2.19,2.19 0 0 1 1.15,-0.31 h 0.13 a 2.1,2.1 0 0 1 1.2,0.52 c 1.85,2.07 4.64,5.19 4.9,5.45 0.26,0.26 0.7,0.26 1.23,0.11 z"
       style="fill:#dabca6"
       id="path41" />
    <path
       d="m 15.28,25.55 a 0.86,0.86 0 0 0 -0.33,-0.17 1.33,1.33 0 0 0 -0.73,0 1.84,1.84 0 0 0 -0.51,0.24 l 0.09,-0.17 a 1.47,1.47 0 0 0 -0.16,-1.71 1.19,1.19 0 0 0 -0.35,-0.18 1,1 0 0 0 -0.4,0 1.65,1.65 0 0 0 -0.44,0.12 3,3 0 0 0 -0.45,0.24 1.72,1.72 0 0 0 0,-2 1.2,1.2 0 0 0 -0.61,-0.23 1.44,1.44 0 0 0 -0.78,0.19 2.65,2.65 0 0 0 -0.66,0.46 2.55,2.55 0 0 0 0.21,-0.91 1,1 0 0 0 -0.32,-0.75 1,1 0 0 0 -0.74,-0.23 1.63,1.63 0 0 0 -0.83,0.26 2.2,2.2 0 0 0 -0.76,0.63 1.65,1.65 0 0 0 -0.39,1.07 1.32,1.32 0 0 0 0.45,0.95 1.28,1.28 0 0 0 0.47,0.23 1.48,1.48 0 0 0 0.5,0 1.6,1.6 0 0 0 0.32,-0.08 l 0.16,-0.07 a 1.43,1.43 0 0 0 0.34,1.56 1.19,1.19 0 0 0 0.39,0.2 1.42,1.42 0 0 0 0.43,0.05 1.55,1.55 0 0 0 0.47,-0.07 2.67,2.67 0 0 0 0.43,-0.16 1.4,1.4 0 0 0 0.29,1.42 1.39,1.39 0 0 0 0.51,0.24 1.48,1.48 0 0 0 0.65,0 1.81,1.81 0 0 0 0.37,-0.14 1.16,1.16 0 0 0 0.3,1.27 1,1 0 0 0 0.36,0.18 1.36,1.36 0 0 0 0.44,0 1.31,1.31 0 0 0 0.49,-0.14 2.11,2.11 0 0 0 0.5,-0.34 c 0.52,-0.46 0.72,-1.58 0.29,-1.96 z"
       style="fill:#dabca6"
       id="path43" />
    <path
       d="m 0,20.8 h 0.11 c 0.47,0.14 1.12,0.07 1.66,-1 1,-1.82 3,-6.76 3,-6.76 0,0 1,-2 -1.07,-2.37 A 32,32 0 0 1 0.2,9.89 L 0,9.82 Z"
       style="fill:#ec761f;fill-opacity:1"
       id="path45" />
    <path
       d="m 32,20.8 h -0.11 c -0.46,0.14 -1.11,0.07 -1.66,-1 -1,-1.82 -3,-6.76 -3,-6.76 0,0 -1,-2 1.07,-2.37 A 32,32 0 0 0 31.79,9.82 H 32 Z"
       style="fill:#5d7bb5;fill-opacity:1"
       id="path47" />
  </g>
  <metadata
     id="metadata1268">
    <rdf:RDF>
      <cc:Work
         rdf:about="">
        <dc:title>doc-40-IconeFactureVenteDirecte</dc:title>
      </cc:Work>
    </rdf:RDF>
  </metadata>
</svg>
