<svg id="e72a8bb4-fa40-48be-89cf-987a074fc18c" data-name="Calque 1" xmlns="http://www.w3.org/2000/svg" width="32" height="32" viewBox="0 0 32 32">
  <title>time-65-IconeSaisieEvenements</title>
  <rect x="2.01" y="9" width="5.05" height="1.93" rx="0.96" style="fill: #9f8e70"/>
  <rect x="2.01" y="20" width="5.05" height="1.93" rx="0.96" style="fill: #9f8e70"/>
  <path d="M23.14,2H21V8h4V4A2,2,0,0,0,23.14,2Z" style="fill: #c89537"/>
  <g>
    <polygon points="25.01 9 21.01 9 21.01 15 24.82 15 25.01 14.8 25.01 9" style="fill: #e0ad53"/>
    <polygon points="21.01 16 21.01 18.8 23.82 16 21.01 16" style="fill: #fac262"/>
    <path d="M16.75,24.33a6.35,6.35,0,0,1,1.78-3L20,19.81V2H5.89A2,2,0,0,0,4,4H4V8H6.09a2,2,0,1,1,0,3.93H4V19H6.09a2,2,0,1,1,0,3.93H4V27H4a2,2,0,0,0,2,2h9.71c0-.1,0-.2,0-.3Z" style="fill: #fac262"/>
  </g>
  <g>
    <path d="M18.19,29.75a.5.5,0,0,1-.35-.14.49.49,0,0,1-.14-.47l1-4.35A4.39,4.39,0,0,1,20,22.7L26.67,16a1.88,1.88,0,0,1,2.65,0l2.15,2.15a1.87,1.87,0,0,1,0,2.65l-6.72,6.72a3.79,3.79,0,0,1-2.11,1.26l-4.34,1ZM28,16.42a.85.85,0,0,0-.62.26L20.65,23.4a3.28,3.28,0,0,0-1,1.62l-.82,3.57,3.58-.82h0a2.87,2.87,0,0,0,1.58-1l6.73-6.73a.88.88,0,0,0,0-1.23l-2.16-2.15A.83.83,0,0,0,28,16.42Z" style="fill: #0499d1"/>
    <path d="M18.84,26.54l2.09,2.08a21.86,21.86,0,0,1-2.42.31A21.52,21.52,0,0,1,18.84,26.54Z" style="fill: #0499d1"/>
    <path d="M26.13,17.22,19.55,23.8l4.05,4.06,6.59-6.59ZM23.77,26.3,23,25.48l5-5,.81.81Z" style="fill: #0499d1"/>
  </g>
  <g>
    <rect x="4.01" y="11.93" width="1" height="7.07" style="fill: #cea04e"/>
    <path d="M5,4.17H5V4a1,1,0,0,1,.91-1H20V2H5.89A2,2,0,0,0,4,4H4V8H5Z" style="fill: #cea04e"/>
  </g>
  <path d="M15.91,28H6.06a1,1,0,0,1-1-1v-.18h0V22.93h-1V27h0a2,2,0,0,0,2,2h9.66c0-.1,0-.2,0-.3Z" style="fill: #cea04e"/>
</svg>
