<?xml version="1.0" encoding="utf-8"?>
<!-- Generator: Adobe Illustrator 15.0.2, SVG Export Plug-In . SVG Version: 6.00 Build 0)  -->
<!DOCTYPE svg PUBLIC "-//W3C//DTD SVG 1.1//EN" "http://www.w3.org/Graphics/SVG/1.1/DTD/svg11.dtd">
<svg version="1.1" id="Calque_1" xmlns="http://www.w3.org/2000/svg" xmlns:xlink="http://www.w3.org/1999/xlink" x="0px" y="0px"
	 width="512px" height="512px" viewBox="0 0 512 512" enable-background="new 0 0 512 512" xml:space="preserve">
<g>
	<path fill="#E68497" d="M502.12,512H9.88c0,0,11.678-40.426,27.848-58.388c16.166-17.964,37.774-12.112,45.81-14.37
		c22.632-6.359,79.942-31.442,79.942-31.442s-77.246-17.958-74.552-70.958l30.076,10.16c0,0-38.5-24.502-31.872-51.478
		c0,0,7.184,17.065,33.234,17.065c26.048,0,32.336-17.063,32.336-32.336c0-15.275-32.336-60.18-32.336-105.094
		c0-44.916,17.068-81.744,35.932-111.384C175.16,34.132,197.612,15.264,220.07,8.98s57.491,0,69.167,0.899
		c0,0,4.49-9.88,41.315-9.88c36.834,0,112.28,57.484,113.176,127.546c0.902,70.064-44.907,143.717-44.907,172.462
		c0,28.75,14.344,53.944,46.68,31.49c0,0,7.214,27.8-34.552,29.594c0,0,20.552,29.408,51.2-14.374c0,0-11.679,97.007-110.933,74.553
		c0,0,8.982,20.658,80.395,24.252C503.022,449.122,502.12,512,502.12,512z"/>
</g>
</svg>
