<?xml version="1.0" encoding="utf-8"?>
<!-- Generator: Adobe Illustrator 15.0.2, SVG Export Plug-In . SVG Version: 6.00 Build 0)  -->
<!DOCTYPE svg PUBLIC "-//W3C//DTD SVG 1.1//EN" "http://www.w3.org/Graphics/SVG/1.1/DTD/svg11.dtd">
<svg version="1.1" id="Calque_1" xmlns="http://www.w3.org/2000/svg" xmlns:xlink="http://www.w3.org/1999/xlink" x="0px" y="0px"
	 width="514px" height="514px" viewBox="0 0 514 514" enable-background="new 0 0 514 514" xml:space="preserve">
<rect x="395.217" y="272.702" transform="matrix(0.226 0.9741 -0.9741 0.226 601.8026 -177.372)" fill="#4785BA" width="34.605" height="34.641"/>
<rect x="364.246" y="201.944" transform="matrix(0.226 0.9741 -0.9741 0.226 508.9294 -201.9656)" fill="#4785BA" width="34.613" height="34.641"/>
<path fill="#999999" d="M84.379,209.701c32.41,9.873,107.746,39.709,116.332,37.348c8.373-4.723,13.096-12.235,12.879-22.967
	c-1.717-4.507-4.22-7.896-7.375-10.449c-3.156-2.553-6.966-4.27-11.296-5.433c-22.349-6-59.604-18.316-63.828-21.125
	c-0.745-0.495-1.342-1.083-1.736-1.806c-0.866-1.587-0.748-3.819,0.957-7.121c26.6,7.032,35.32,9.741,66.109,21.464
	c4.078-21.893,15.24-40.567,14.381-64.605c-0.378-0.946-0.752-1.868-1.126-2.778c-0.577-1.405-1.158-2.767-1.756-4.088
	c-0.113-0.25-0.223-0.503-0.338-0.75c-0.539-1.161-1.098-2.288-1.689-3.385c-0.019-0.036-0.037-0.073-0.056-0.109
	c-0.555-1.025-1.144-2.019-1.767-2.991c-0.065-0.101-0.125-0.205-0.19-0.306c-2.791-4.266-6.386-8.022-11.752-11.349
	c-31.765-14.167-49.785,15.487-73.189,35.843c-6.01,5.795-37.295,29.481-40.207,42.776c-1.033,5.903-1.728,10.964,0.518,15.643
	C80.269,205.642,81.898,207.689,84.379,209.701z"/>
<path fill="#999999" d="M167.661,453.531c15.023-23.611,17.17-52.586,25.756-78.771c4.67-17.965,7.641-30.451,4.295-44.557
	c-4.59-19.352-14.365-36.732-18.463-54.607c-4.293-7.729,1.289-22.967,1.289-22.967l-11.482-3.757l-58.706-19.208
	c0,0-22.967,68.254-31.553,103.455c-20.389,13.092-43.785,18.459-64.605,30.049C3.462,368.536-1.905,380.555,2.6,391.932
	c2.578,7.51,10.52,14.164,18.675,14.379c20.818-11.59,43.787-17.388,64.605-28.763c14.936-7.024,28.42-18.838,36.137-35.838
	c7.737-17.041,14.365-36.019,15.592-37.354c8.511,13.496,13.524,21.91,22.968,37.349l0,0l0,0.001l-10.089,41.639
	c-3.824,21.128-20.852,47.163-8.642,66.429c0.814,1.284,1.758,2.538,2.844,3.759C152.419,457.824,161.22,457.824,167.661,453.531z"
	/>
<circle fill="#999999" cx="198.086" cy="67.001" r="39.039"/>
<path fill="#999999" d="M500.685,400.148c-1.492-6.388-7.267-10.653-13.577-10.482c-0.901,0.024-1.814,0.14-2.727,0.352
	l-26.227,6.127l-57.253,13.377c3.96,7.98,6.253,16.923,6.444,26.374l49.046-11.458l34.165-7.982c0.456-0.106,0.9-0.235,1.334-0.384
	C498.398,413.836,502.283,406.993,500.685,400.148z"/>
<path fill="#999999" d="M310.129,243.006l-60.74-16.399c-5.422-1.465-10.973,0.577-14.234,4.743
	c-1.087,1.389-1.919,3.013-2.408,4.822c-1.955,7.238,2.329,14.689,9.565,16.643l45.133,12.187l27.805,117.25
	c7.857-4.263,16.726-6.883,26.144-7.414L310.129,243.006z"/>
<path fill="#506D80" d="M393.703,434.172c-0.018-0.286-0.043-0.571-0.064-0.856c-0.06-0.749-0.134-1.493-0.226-2.231
	c-0.032-0.262-0.063-0.524-0.1-0.785c-0.283-2-0.683-3.962-1.2-5.877c-0.032-0.118-0.067-0.234-0.101-0.353
	c-0.248-0.891-0.52-1.772-0.816-2.643c-0.03-0.091-0.061-0.183-0.092-0.273c-1.026-2.951-2.325-5.775-3.869-8.44
	c-0.485-0.838-0.993-1.661-1.522-2.468c-0.003-0.004-0.006-0.009-0.009-0.014c-0.526-0.799-1.075-1.582-1.648-2.347
	c-0.007-0.008-0.013-0.017-0.019-0.025c-0.702-0.936-1.445-1.837-2.211-2.719c-0.191-0.22-0.378-0.444-0.573-0.661
	c-0.293-0.325-0.596-0.639-0.896-0.955c-0.213-0.224-0.422-0.451-0.64-0.671c-0.307-0.311-0.623-0.613-0.938-0.916
	c-0.22-0.212-0.438-0.425-0.662-0.632c-0.328-0.304-0.663-0.599-0.999-0.894c-0.22-0.192-0.439-0.385-0.662-0.573
	c-0.353-0.298-0.71-0.589-1.07-0.876c-0.214-0.171-0.428-0.34-0.645-0.507c-0.381-0.293-0.766-0.581-1.155-0.863
	c-0.2-0.145-0.401-0.287-0.604-0.429c-0.415-0.292-0.834-0.579-1.259-0.858c-0.175-0.114-0.352-0.226-0.527-0.338
	c-0.461-0.294-0.924-0.584-1.395-0.862c-0.127-0.075-0.256-0.146-0.384-0.221c-0.527-0.306-1.057-0.606-1.597-0.893
	c-0.021-0.012-0.044-0.022-0.066-0.034c-3.813-2.015-7.923-3.541-12.249-4.495c-0.001,0-0.002,0-0.003,0
	c-0.842-0.186-1.691-0.35-2.548-0.492c-0.013-0.002-0.024-0.005-0.037-0.007c-0.806-0.134-1.618-0.243-2.436-0.337
	c-0.074-0.009-0.147-0.021-0.222-0.028c-0.747-0.083-1.501-0.141-2.258-0.188c-0.139-0.009-0.276-0.024-0.415-0.031
	c-0.87-0.048-1.746-0.073-2.629-0.073c-0.006,0-0.013-0.001-0.02-0.001c-0.116,0-0.231,0.008-0.347,0.01c-0.001,0-0.002,0-0.003,0
	c-1.043,0.007-2.075,0.054-3.102,0.125c-0.263,0.019-0.525,0.037-0.786,0.06c-0.439,0.038-0.879,0.079-1.314,0.128
	c-0.216,0.025-0.43,0.056-0.646,0.082c-0.844,0.107-1.681,0.235-2.511,0.385c-0.179,0.032-0.358,0.062-0.536,0.096
	c-0.464,0.089-0.926,0.186-1.385,0.288c-0.173,0.038-0.344,0.079-0.516,0.119c-1.525,0.356-3.023,0.782-4.489,1.277
	c-0.087,0.029-0.174,0.059-0.261,0.088c-3.729,1.284-7.256,3.006-10.518,5.105v-0.001c-5.863,3.775-10.864,8.768-14.649,14.624
	c-0.061,0.094-0.12,0.187-0.18,0.28c-0.484,0.761-0.949,1.534-1.392,2.322c-0.032,0.057-0.065,0.111-0.098,0.168
	c-0.937,1.683-1.772,3.428-2.508,5.225c-0.073,0.178-0.142,0.358-0.212,0.537c-0.279,0.706-0.542,1.42-0.789,2.142
	c-0.075,0.22-0.151,0.439-0.224,0.661c-0.256,0.786-0.493,1.58-0.71,2.383c-0.032,0.12-0.07,0.237-0.102,0.358
	c-0.242,0.925-0.456,1.861-0.645,2.807c-0.041,0.203-0.072,0.408-0.109,0.612c-0.137,0.731-0.258,1.468-0.36,2.211
	c-0.042,0.302-0.08,0.605-0.116,0.91c-0.082,0.686-0.148,1.376-0.201,2.07c-0.022,0.29-0.049,0.579-0.066,0.871
	c-0.058,0.968-0.095,1.94-0.095,2.922c0,0,0,0,0,0.001c0,0.919,0.03,1.831,0.08,2.737c0.067,1.214,0.188,2.413,0.343,3.602
	c3.11,23.991,23.605,42.528,48.444,42.528c1.681,0,3.341-0.087,4.978-0.253c0.1-0.01,0.198-0.026,0.297-0.037
	c0.712-0.076,1.42-0.163,2.121-0.27c0.185-0.027,0.366-0.065,0.55-0.096c0.612-0.1,1.224-0.203,1.828-0.326
	c0.235-0.048,0.467-0.107,0.701-0.158c0.547-0.119,1.094-0.239,1.633-0.377c0.27-0.068,0.535-0.148,0.803-0.222
	c0.497-0.137,0.995-0.271,1.487-0.423c0.293-0.09,0.582-0.192,0.874-0.288c0.456-0.15,0.914-0.299,1.364-0.462
	c0.313-0.113,0.621-0.238,0.932-0.358c0.421-0.162,0.843-0.322,1.258-0.495c0.327-0.138,0.648-0.285,0.972-0.429
	c0.389-0.173,0.778-0.343,1.162-0.525c0.339-0.161,0.672-0.333,1.007-0.502c0.357-0.18,0.716-0.358,1.068-0.547
	c0.349-0.188,0.691-0.384,1.035-0.579c0.328-0.187,0.657-0.371,0.98-0.564c0.355-0.213,0.704-0.435,1.054-0.656
	c0.301-0.19,0.603-0.38,0.899-0.576c0.36-0.239,0.713-0.487,1.066-0.736c0.274-0.193,0.551-0.386,0.821-0.584
	c0.363-0.267,0.719-0.542,1.074-0.818c0.249-0.193,0.499-0.386,0.743-0.584c0.365-0.296,0.724-0.6,1.08-0.905
	c0.224-0.191,0.447-0.383,0.668-0.578c0.364-0.324,0.722-0.656,1.076-0.991c0.2-0.189,0.4-0.378,0.598-0.57
	c0.361-0.354,0.716-0.714,1.066-1.078c0.178-0.185,0.355-0.369,0.531-0.558c0.357-0.383,0.707-0.773,1.053-1.168
	c0.155-0.179,0.312-0.356,0.465-0.537c0.352-0.413,0.694-0.834,1.032-1.259c0.136-0.172,0.271-0.344,0.405-0.517
	c0.343-0.443,0.677-0.893,1.004-1.348c0.118-0.164,0.234-0.327,0.351-0.492c0.331-0.474,0.654-0.953,0.97-1.438
	c0.1-0.154,0.199-0.309,0.297-0.464c0.319-0.504,0.629-1.014,0.93-1.529c0.084-0.144,0.166-0.287,0.248-0.432
	c0.304-0.534,0.599-1.073,0.883-1.619c0.069-0.134,0.137-0.268,0.205-0.401c0.286-0.563,0.563-1.13,0.827-1.705
	c0.056-0.122,0.11-0.245,0.166-0.368c0.267-0.592,0.522-1.188,0.767-1.793c0.044-0.109,0.086-0.22,0.13-0.329
	c0.244-0.621,0.479-1.247,0.698-1.88c0.034-0.097,0.066-0.195,0.1-0.293c0.22-0.648,0.43-1.302,0.623-1.962
	c0.025-0.085,0.048-0.171,0.072-0.256c0.194-0.676,0.376-1.356,0.542-2.044c0.018-0.072,0.033-0.145,0.05-0.217
	c0.166-0.702,0.318-1.41,0.454-2.124c0.011-0.058,0.02-0.115,0.03-0.173c0.136-0.73,0.257-1.466,0.359-2.207
	c0.006-0.041,0.011-0.083,0.016-0.124c0.104-0.758,0.19-1.521,0.259-2.29c0.002-0.024,0.003-0.05,0.006-0.075
	c0.067-0.785,0.118-1.574,0.149-2.37c0-0.002,0-0.004,0-0.006c0.024-0.632,0.048-1.264,0.048-1.9
	C393.804,436.163,393.764,435.165,393.703,434.172z"/>
<path fill="#F1BE41" d="M398.173,404.581l114.823-26.635l-28.399-122.408l-59.113,13.715l7.819,33.71l0,0l0.005,0.021l-33.745,7.829
	l-0.005-0.022h-0.001L394.037,287l-2.301-9.918l-58.919,13.67l19.368,84.414C371.631,377.425,388.379,388.643,398.173,404.581z"/>
<polygon fill="#F1BE41" points="331.046,284.001 391.73,269.924 419.966,263.375 455.407,255.152 446.739,217.777 439.824,187.979 
	394.515,198.491 402.342,232.227 368.597,240.056 368.593,240.038 368.59,240.038 362.318,213 360.769,206.32 315.462,216.832 "/>
<rect x="394.515" y="198.49" fill="#2A2A2A" width="0" height="0"/>
</svg>
