<?xml version="1.0" encoding="utf-8"?>
<!-- Generator: Adobe Illustrator 15.0.2, SVG Export Plug-In . SVG Version: 6.00 Build 0)  -->
<!DOCTYPE svg PUBLIC "-//W3C//DTD SVG 1.1//EN" "http://www.w3.org/Graphics/SVG/1.1/DTD/svg11.dtd">
<svg version="1.1" id="Calque_1" xmlns="http://www.w3.org/2000/svg" xmlns:xlink="http://www.w3.org/1999/xlink" x="0px" y="0px"
	 width="512px" height="512px" viewBox="0 0 512 512" enable-background="new 0 0 512 512" xml:space="preserve">
<path fill="#4785BA" d="M512.002,503.728H0c0,0,15.01-52.53,35.858-69.21c20.848-16.681,32.52-14.174,52.534-17.511
	c20.014-3.338,90.894-6.676,90.894-48.367c0,0,8.336-17.517-29.188-60.874c0,0-11.672-0.832-27.518-31.687
	c-15.84-30.857-21.678-50.872-11.672-50.036c10.006,0.834,6.67-1.666,6.67-1.666s-18.342-56.708-13.34-83.39l-3.336,5.84
	c0,0-14.18-43.364,2.5-70.88c16.676-27.518-0.834-20.014,29.184-37.524c30.018-17.512,50.032-31.689,113.408-30.02
	s129.25,23.354,129.25,141.762c0,0,2.508,24.179-5.834,46.694c0,0,20.014-5.002,14.174,19.178c-5.838,24.181-6.67,57.54-30.02,72.55
	c0,0-4.169,20.849-14.175,50.868c-10.006,30.021-2.502,42.528,9.172,52.534c11.675,10.008,58.442,25.678,84.221,29.184
	c24.788,3.373,32.554,3.494,39.195,14.177C480.784,449.514,512.002,503.728,512.002,503.728z"/>
</svg>
