<?xml version="1.0" encoding="UTF-8" standalone="no"?>
<svg
   height="24"
   viewBox="0 -960 960 960"
   width="24"
   version="1.1"
   id="svg7448"
   sodipodi:docname="piece.svg"
   inkscape:version="1.2.1 (9c6d41e410, 2022-07-14)"
   xmlns:inkscape="http://www.inkscape.org/namespaces/inkscape"
   xmlns:sodipodi="http://sodipodi.sourceforge.net/DTD/sodipodi-0.dtd"
   xmlns="http://www.w3.org/2000/svg"
   xmlns:svg="http://www.w3.org/2000/svg">
  <defs
     id="defs7452">
    <inkscape:path-effect
       effect="fill_between_many"
       method="originald"
       linkedpaths="#path7446,0,1|"
       id="path-effect11268" />
    <inkscape:path-effect
       effect="fill_between_many"
       method="originald"
       linkedpaths="#path11280,0,1"
       id="path-effect11392" />
  </defs>
  <sodipodi:namedview
     id="namedview7450"
     pagecolor="#ffffff"
     bordercolor="#000000"
     borderopacity="0.25"
     inkscape:showpageshadow="2"
     inkscape:pageopacity="0.0"
     inkscape:pagecheckerboard="0"
     inkscape:deskcolor="#d1d1d1"
     showgrid="false"
     inkscape:zoom="19.533825"
     inkscape:cx="23.651282"
     inkscape:cy="9.0612054"
     inkscape:window-width="1536"
     inkscape:window-height="793"
     inkscape:window-x="-8"
     inkscape:window-y="-8"
     inkscape:window-maximized="1"
     inkscape:current-layer="svg7448" />
  <path
     id="path11405"
     d="M 460 -900 C 432.00003 -900 408.31769 -890.34894 388.98438 -871.01562 C 369.65106 -851.68231 360 -827.99997 360 -800 L 200 -800 C 178.00002 -800 159.18228 -792.15103 143.51562 -776.48438 C 127.84897 -760.81772 120 -741.99998 120 -720 L 120 -567.96875 C 151.99997 -567.96875 179.9844 -557.83331 203.98438 -537.5 C 227.98435 -517.16669 240 -491.3333 240 -460 C 240 -428.6667 227.98435 -402.83331 203.98438 -382.5 C 179.9844 -362.16669 151.99997 -352.03125 120 -352.03125 L 120 -200 C 120 -178.00002 127.84897 -159.18228 143.51562 -143.51562 C 159.18228 -127.84897 178.00002 -120 200 -120 C 200 -120 334.57417 -109.68989 352.03125 -120 C 369.48833 -130.31011 415.15849 -180.57156 460 -176.01562 C 504.84151 -171.45969 559.46261 -132.05488 567.96875 -120 C 576.4749 -107.94512 720 -120 720 -120 C 741.99998 -120 760.81772 -127.84897 776.48438 -143.51562 C 792.15103 -159.18228 800 -178.00002 800 -200 L 800 -360 C 827.99997 -360 851.68231 -369.65106 871.01562 -388.98438 C 890.34894 -408.31769 900 -432.00003 900 -460 C 900 -487.99997 890.34894 -511.68231 871.01562 -531.01562 C 851.68231 -550.34894 827.99997 -560 800 -560 L 800 -720 C 800 -741.99998 792.15103 -760.81772 776.48438 -776.48438 C 760.81772 -792.15103 741.99998 -800 720 -800 L 560 -800 C 560 -827.99997 550.34894 -851.68231 531.01562 -871.01562 C 511.68231 -890.34894 487.99997 -900 460 -900 z M 355.46875 -677.5 L 493.67188 -677.5 C 514.37245 -677.5 531.79697 -675.27698 545.9375 -670.78125 C 560.22381 -666.46535 572.8166 -659.90538 583.75 -651.09375 C 596.87008 -640.48383 606.82028 -626.93491 613.67188 -610.39062 C 620.66925 -593.84634 624.21875 -573.97922 624.21875 -550.78125 C 624.21875 -532.79833 621.66475 -515.15423 616.5625 -497.89062 C 611.46025 -480.80685 604.16312 -466.45452 594.6875 -454.76562 C 581.7132 -438.94065 567.20753 -426.92044 551.17188 -418.82812 C 535.282 -410.73581 515.40255 -406.71875 491.64062 -406.71875 L 439.375 -406.71875 L 439.375 -275.85938 L 355.46875 -275.85938 L 355.46875 -677.5 z M 439.375 -602.57812 L 439.375 -482.26562 L 463.4375 -482.26562 C 477.72381 -482.26562 489.48782 -483.3108 498.67188 -485.46875 C 508.00171 -487.6267 515.76277 -491.96365 522.03125 -498.4375 C 527.42506 -504.19203 531.33942 -510.99376 533.67188 -518.90625 C 536.15011 -526.99856 537.34375 -536.85031 537.34375 -548.35938 C 537.34375 -559.68862 534.87835 -569.40769 529.92188 -577.5 C 524.9654 -585.77214 519.21629 -591.45057 512.65625 -594.6875 C 503.90953 -599.0034 495.41876 -601.35909 487.10938 -601.71875 C 478.79999 -602.25824 467.6771 -602.57812 453.82812 -602.57812 L 439.375 -602.57812 z "
     style="stroke:#43dfc8;stroke-opacity:1;stroke-width:21;stroke-dasharray:none;stroke-dashoffset:0" />
</svg>
