<?xml version="1.0" encoding="UTF-8" standalone="no"?>
<svg
   id="ea4e206f-0c4d-440e-a4ab-31b58c4d2613"
   data-name="Calque 1"
   width="32"
   height="32"
   viewBox="0 0 32 32"
   version="1.1"
   sodipodi:docname="preparationNoColor.svg"
   inkscape:version="1.2.1 (9c6d41e410, 2022-07-14)"
   xmlns:inkscape="http://www.inkscape.org/namespaces/inkscape"
   xmlns:sodipodi="http://sodipodi.sourceforge.net/DTD/sodipodi-0.dtd"
   xmlns="http://www.w3.org/2000/svg"
   xmlns:svg="http://www.w3.org/2000/svg">
  <defs
     id="defs41" />
  <sodipodi:namedview
     id="namedview39"
     pagecolor="#ffffff"
     bordercolor="#000000"
     borderopacity="0.25"
     inkscape:showpageshadow="2"
     inkscape:pageopacity="0.0"
     inkscape:pagecheckerboard="0"
     inkscape:deskcolor="#d1d1d1"
     showgrid="false"
     inkscape:zoom="25.125"
     inkscape:cx="9.4925373"
     inkscape:cy="16.039801"
     inkscape:window-width="1920"
     inkscape:window-height="1009"
     inkscape:window-x="1912"
     inkscape:window-y="79"
     inkscape:window-maximized="1"
     inkscape:current-layer="ea4e206f-0c4d-440e-a4ab-31b58c4d2613" />
  <title
     id="title2">doc-78-IconeEditionsAnalytique</title>
  <g
     id="g16"
     style="fill:#ffffff;fill-opacity:1;stroke:#000000;stroke-opacity:0.47777778">
    <path
       d="M26.21,7,20.67,1.44A1.48,1.48,0,0,0,19.6,1H6.15a1.5,1.5,0,0,0-1.5,1.5v27A1.5,1.5,0,0,0,6.15,31h19a1.51,1.51,0,0,0,1.5-1.5v-.77H23.1A3.11,3.11,0,0,1,20,25.62V23.94H12.73a.5.5,0,0,1-.5-.5.5.5,0,0,1,.5-.5h7.4a3.42,3.42,0,0,1,.32-.7A3,3,0,0,1,20,20.65v-.71H12.73a.5.5,0,0,1-.5-.5.5.5,0,0,1,.5-.5H20v-.12a3.1,3.1,0,0,1,.45-1.59A3.18,3.18,0,0,1,20,15.94H12.73a.5.5,0,0,1-.5-.5.5.5,0,0,1,.5-.5H20V13.83a3.1,3.1,0,0,1,3.1-3.1h3.56V8A1.52,1.52,0,0,0,26.21,7Z"
       style="fill:#ffffff;fill-opacity:1;stroke:#000000;stroke-opacity:0.47777778"
       id="path4" />
    <path
       d="M26.12,31.8a2.44,2.44,0,0,1-1,.2A2.44,2.44,0,0,0,26.12,31.8Z"
       style="fill:#ffffff;fill-opacity:1;stroke:#000000;stroke-opacity:0.47777778"
       id="path6" />
    <path
       d="M26.65,29.5a1.51,1.51,0,0,1-1.5,1.5h-19a1.5,1.5,0,0,1-1.5-1.5V2.5A1.5,1.5,0,0,1,6.15,1H19.6a1.48,1.48,0,0,1,1.07.44L26.21,7A1.52,1.52,0,0,1,26.65,8v2.7h1V8a2.52,2.52,0,0,0-.74-1.77L21.37.73A2.49,2.49,0,0,0,19.6,0H6.15a2.5,2.5,0,0,0-2.5,2.5v27A2.5,2.5,0,0,0,6.15,32h19a2.44,2.44,0,0,0,1-.2,2.5,2.5,0,0,0,1.53-2.3v-.77h-1Z"
       style="fill:#ffffff;fill-opacity:1;stroke:#000000;stroke-opacity:0.47777778"
       id="path8" />
    <path
       d="M20,14.94H12.73a.5.5,0,0,0-.5.5.5.5,0,0,0,.5.5H20c0-.1,0-.2,0-.3Z"
       style="fill:#ffffff;fill-opacity:1;stroke:#000000;stroke-opacity:0.47777778"
       id="path10" />
    <path
       d="M12.73,18.94a.5.5,0,0,0-.5.5.5.5,0,0,0,.5.5H20v-1Z"
       style="fill:#ffffff;fill-opacity:1;stroke:#000000;stroke-opacity:0.47777778"
       id="path12" />
    <path
       d="M20.13,22.94h-7.4a.5.5,0,0,0-.5.5.5.5,0,0,0,.5.5H20v-.1A3,3,0,0,1,20.13,22.94Z"
       style="fill:#ffffff;fill-opacity:1;stroke:#000000;stroke-opacity:0.47777778"
       id="path14" />
  </g>
  <path
     d="M26.35,7.14h-6.2v-6A1.45,1.45,0,0,0,19.6,1h-.45V7.64a.5.5,0,0,0,.5.5h7V8A1.51,1.51,0,0,0,26.35,7.14Z"
     style="fill: #d7d8d9"
     id="path18" />
  <circle
     cx="9.99"
     cy="15.51"
     r="1"
     style="fill: #c5c6c8"
     id="circle20" />
  <circle
     cx="9.99"
     cy="19.51"
     r="1"
     style="fill: #c5c6c8"
     id="circle22" />
  <circle
     cx="9.99"
     cy="23.51"
     r="1"
     style="fill: #c5c6c8"
     id="circle24" />
  <path
     d="M2.65,29.5V2.5A2.53,2.53,0,0,1,3.75.42,2.53,2.53,0,0,0,2.65,2.5v27a2.51,2.51,0,0,0,1.1,2.07A2.51,2.51,0,0,1,2.65,29.5Z"
     style="fill: #fff"
     id="path26" />
  <path
     d="M18.6,0h0a2,2,0,0,1,.49.05A2,2,0,0,0,18.6,0Z"
     style="fill: #868789"
     id="path28" />
  <g
     id="g36">
    <rect
       x="21.99"
       y="12.73"
       width="8"
       height="4"
       rx="1.1"
       style="fill:#ffffff;fill-opacity:1;stroke:#000000;stroke-opacity:0.47777778;stroke-width:0.2;stroke-dasharray:none"
       id="rect30" />
    <rect
       x="21.99"
       y="17.73"
       width="8"
       height="4"
       rx="1.09"
       style="fill:#ffffff;fill-opacity:1;stroke:#000000;stroke-opacity:0.47777778;stroke-width:0.2;stroke-dasharray:none"
       id="rect32" />
    <rect
       x="21.99"
       y="22.73"
       width="8"
       height="4"
       rx="1.11"
       style="fill:#ffffff;fill-opacity:1;stroke-width:0.2;stroke-dasharray:none;stroke:#000000;stroke-opacity:0.47777778"
       id="rect34" />
  </g>
</svg>
