<?xml version="1.0" encoding="utf-8"?>
<!-- Generator: Adobe Illustrator 15.0.0, SVG Export Plug-In . SVG Version: 6.00 Build 0)  -->
<!DOCTYPE svg PUBLIC "-//W3C//DTD SVG 1.1//EN" "http://www.w3.org/Graphics/SVG/1.1/DTD/svg11.dtd">
<svg version="1.1" id="Calque_1" xmlns="http://www.w3.org/2000/svg" xmlns:xlink="http://www.w3.org/1999/xlink" x="0px" y="0px"
	 width="512px" height="512px" viewBox="0 0 512 512" enable-background="new 0 0 512 512" xml:space="preserve">
<g>
	<path fill="#4785BA" d="M63.66,390.366h68.532h91.041h39.111v-83.553h89.422h26.405c-38.452-22.54-46.57-41.424-46.57-41.424
		c-8.469,2.104-16.938-4.25-16.938-4.25c14.834-6.354,10.584-38.146,10.584-38.146c6.353,0,19.072-19.063,19.072-19.063
		c19.071-16.98,8.5-69.958,8.5-69.958c8.469-63.563-12.72-91.104-12.72-91.104c0-14.854-42.396-29.687-42.396-29.687
		c0-16.958-48.749-12.709-48.749-12.709c-36.02,0-40.259,10.604-40.259,10.604c-12.718,0-38.156,23.292-38.156,23.292
		c-23.291,33.915-10.604,99.604-10.604,99.604c-8.469,42.395,4.25,57.228,4.25,57.228c0,16.959,19.073,21.188,19.073,21.188
		c-2.105,31.792,19.073,48.751,19.073,48.751c0,10.604-21.178,8.479-21.178,8.479c0,36.022-125.05,69.938-125.05,69.938
		C-20.197,367.096,3.125,445.534,3.125,445.534H63.66V390.366z"/>
	<g>
		<g>
			<g>
				<rect x="282.344" y="326.813" fill="#F1BE41" width="229.89" height="185.187"/>
				<rect x="371.766" y="326.813" fill="#4785BA" width="51.043" height="51.031"/>
			</g>
			<g>
				<rect x="83.66" y="410.366" fill="#F1BE41" width="188.107" height="101.632"/>
				<rect x="152.192" y="410.366" fill="#4785BA" width="51.041" height="51.031"/>
			</g>
		</g>
	</g>
</g>
</svg>
