<svg xmlns="http://www.w3.org/2000/svg" data-name="Layer 1" viewBox="0 0 512 512"><g data-name="&lt;Group&gt;"><g data-name="&lt;Group&gt;"><path fill="#00acea" d="M466.5,176.1V435.7a29.96,29.96,0,0,1-30,30H75.5a29.96,29.96,0,0,1-30-30V176.1H199V286l113-44.5V176.1ZM210,422V356H93v66Z" data-name="&lt;Group&gt;"/><path fill="#fedb41" d="M421.4,65l45.1,111.1H312v-.2L291.5,46.3h102A30.064,30.064,0,0,1,421.4,65Z" data-name="&lt;Group&gt;"/><polygon fill="#00efd1" points="312 176.1 312 241.5 199 286 199 176.1 312 176.1" data-name="&lt;Group&gt;"/><polygon fill="#00efd1" points="312 175.9 312 176.1 199 176.1 199 176 219.6 46.3 291.5 46.3 312 175.9" data-name="&lt;Group&gt;"/><path fill="#fedb41" d="M219.6,46.3,199,176v.1H45.5L90.7,65a30.03,30.03,0,0,1,27.8-18.7Z" data-name="&lt;Group&gt;"/><rect width="117" height="66" x="93" y="356" fill="#fedb41" data-name="&lt;Group&gt;"/></g><g data-name="&lt;Group&gt;"><path fill="#083863" d="M430.6,61.1A39.868,39.868,0,0,0,393.5,36h-275A39.969,39.969,0,0,0,81.4,61.1L36,172.2a10.207,10.207,0,0,0-1,3.8V435.6c0,22.1,18.4,40.3,40.5,40.3h361c22.1,0,39.5-18.2,39.5-40.3V176.1a9.719,9.719,0,0,0-.5-3.8Zm-18.5,7.5L451.7,166H320.6L303.2,56h90.3A20.1,20.1,0,0,1,412.1,68.6ZM209,186h93v48.7l-93,36.6ZM283,56l17.3,110H210.7L228.1,56ZM99.9,68.6A20.1,20.1,0,0,1,118.5,56h89.4L190.5,166H60.4ZM436.5,456H75.5c-11,0-20.5-9.3-20.5-20.3V186H189V286a9.986,9.986,0,0,0,4.4,8.3A10.231,10.231,0,0,0,199,296a9.71,9.71,0,0,0,3.7-.7l113-44.5a10,10,0,0,0,6.3-9.3V186H456V435.7C456,446.7,447.5,456,436.5,456Z" data-name="&lt;Compound Path&gt;"/><path fill="#083863" d="M210,346H93a10.029,10.029,0,0,0-10,10v66a10.029,10.029,0,0,0,10,10H210a10.029,10.029,0,0,0,10-10V356A10.029,10.029,0,0,0,210,346Zm-10,66H103V366h97Z" data-name="&lt;Compound Path&gt;"/></g></g></svg>