<svg xmlns="http://www.w3.org/2000/svg" viewBox="0 0 676.378 672.785"><path d="M676.403 489.625v105.79c0 11.625-9.512 21.137-21.137 21.137h-118.26c-6.975 32.128-35.616 56.224-69.857 56.224-34.136 0-62.776-24.096-69.857-56.224H207.483c-6.975 32.128-35.616 56.224-69.857 56.224-34.136 0-62.776-24.096-69.751-56.224H21.162c-11.625 0-21.137-9.512-21.137-21.137v-105.79c0-11.625 9.512-21.137 21.137-21.137h373.699V190.222h-48.298c-11.625 0-21.137-9.512-21.137-21.137V21.128c0-11.731 9.512-21.137 21.137-21.137h264.21a21.064 21.064 0 0121.137 21.137v147.958c0 11.625-9.406 21.137-21.137 21.137h-46.818v278.266h91.311c11.625-.001 21.137 9.511 21.137 21.136zm-42.274 84.653v-63.516h-43.542v63.516h43.542zm-44.493-426.329V42.265h-19.023v105.684h19.023zm-41.322 426.329v-63.516H42.299v63.516h29.274c10.674-25.998 36.25-44.387 66.053-44.387s55.484 18.389 66.158 44.387H400.99c10.78-25.998 36.355-44.387 66.158-44.387 29.803 0 55.378 18.389 66.158 44.387h15.008zm-19.975-426.329V42.265H367.7v105.684h160.639zm-6.658 320.539V190.222h-14.796v278.266h14.796zm-25.364 132.845c0-16.064-13.105-29.169-29.169-29.169s-29.169 13.105-29.169 29.169 13.105 29.169 29.169 29.169 29.169-13.105 29.169-29.169zm-31.705-132.845V190.222h-27.478v278.266h27.478zM166.9 601.333c0-16.064-13.105-29.169-29.274-29.169-16.064 0-29.169 13.105-29.169 29.169s13.105 29.169 29.169 29.169c16.169 0 29.274-13.105 29.274-29.169z" fill="#1d1d1b"/><path fill="#03a8f3" d="M590.587 510.762h43.542v63.516h-43.542z"/><path fill="#8ac24a" d="M570.613 42.265h19.023v105.684h-19.023z"/><path fill="#5c6bbf" d="M506.886 190.222h14.796v278.266h-14.796z"/><path d="M500.228 73.97v42.274a15.832 15.832 0 01-15.853 15.853 15.832 15.832 0 01-15.853-15.853V73.97a15.832 15.832 0 0115.853-15.853 15.832 15.832 0 0115.853 15.853z" fill="#1d1d1b"/><path d="M528.339 42.265v105.684h-43.965v-15.853a15.832 15.832 0 0015.853-15.853V73.97a15.832 15.832 0 00-15.853-15.853V42.265h43.965z" fill="#ccdb39"/><path d="M467.148 572.164c16.064 0 29.169 13.105 29.169 29.169s-13.105 29.169-29.169 29.169-29.169-13.105-29.169-29.169 13.105-29.169 29.169-29.169z" fill="#8fa3ad"/><path fill="#7985ca" d="M437.134 190.222h27.478v278.266h-27.478z"/><path d="M457.954 116.243c0-4.122-1.691-8.243-4.65-11.203-5.918-5.918-16.487-5.918-22.405 0-2.959 2.959-4.65 7.081-4.65 11.203 0 4.122 1.691 8.243 4.65 11.203 2.959 2.959 7.081 4.65 11.203 4.65 4.122 0 8.243-1.691 11.202-4.65a15.837 15.837 0 004.65-11.203zm10.568 0a15.832 15.832 0 0015.853 15.853v15.853H367.7V42.265h116.675v15.853a15.832 15.832 0 00-15.853 15.853v42.272z" fill="#ccdb39"/><path d="M453.304 105.041c2.959 2.959 4.65 7.081 4.65 11.203a15.84 15.84 0 01-4.65 11.203c-2.959 2.959-7.081 4.65-11.202 4.65-4.122 0-8.243-1.691-11.203-4.65-2.959-2.959-4.65-7.081-4.65-11.203 0-4.122 1.691-8.243 4.65-11.203 5.918-5.918 16.487-5.918 22.405 0z" fill="#1d1d1b"/><path d="M203.784 574.278c-10.674-25.998-36.355-44.387-66.158-44.387v-19.129h410.688v63.516h-15.007c-10.78-25.998-36.355-44.387-66.158-44.387-29.803 0-55.378 18.389-66.158 44.387H203.784z" fill="#40c3fe"/><path d="M137.626 572.164c16.17 0 29.274 13.105 29.274 29.169s-13.105 29.169-29.274 29.169c-16.064 0-29.169-13.105-29.169-29.169s13.105-29.169 29.169-29.169z" fill="#8fa3ad"/><path d="M42.299 510.762h95.327v19.129c-29.803 0-55.378 18.389-66.053 44.387H42.299v-63.516z" fill="#40c3fe"/></svg>