<svg xmlns="http://www.w3.org/2000/svg" viewBox="0 0 687.158 666.866"><path d="M687.159 482.609v104.944c0 12.893-10.463 23.356-23.25 23.356H548.184c-7.821 32.022-36.778 55.907-71.125 55.907-34.453 0-63.305-23.885-71.125-55.907H220.881c-7.821 32.022-36.672 55.907-71.125 55.907s-63.305-23.885-71.125-55.907h-44.6c-12.788 0-23.25-10.463-23.25-23.356V482.609c0-12.893 10.463-23.356 23.25-23.356h29.803v-245.61H21.138c-11.731 0-21.137-9.512-21.137-21.137a21.064 21.064 0 0121.137-21.137h63.833a21.064 21.064 0 0121.137 21.137v34.242h81.694V23.306c0-12.893 10.463-23.356 23.356-23.356h267.909c12.788 0 23.25 10.463 23.25 23.356v203.442h128.406c12.788 0 23.25 10.357 23.25 23.25v209.254h9.934c12.789.001 23.252 10.464 23.252 23.357zm-46.501 81.694V505.86h-38.786v58.443h38.786zM607.367 453.44V273.249h-21.771V453.44h21.771zm-51.996 110.863V505.86H57.282v58.443H82.54c11.308-25.893 37.201-44.07 67.215-44.07s55.907 18.178 67.215 44.07h192.873c11.308-25.893 37.201-44.07 67.215-44.07 30.014 0 55.907 18.178 67.109 44.07h11.204zM539.095 453.44V273.249h-21.982v49.143c0 9.617-7.821 17.438-17.438 17.438h-74.19c-9.723 0-17.544-7.821-17.544-17.438v-49.143h-21.877V453.44h153.031zm-35.298 140.032c0-14.69-12.048-26.738-26.738-26.738-14.796 0-26.738 12.048-26.738 26.738 0 14.796 11.942 26.738 26.738 26.738 14.69 0 26.738-11.943 26.738-26.738zm-21.665-288.518v-31.705h-39.209v31.705h39.209zm-26.316-78.206V46.557H433.94v180.191h21.876zm-68.377 0V46.557h-21.982V95.7c0 9.617-7.821 17.438-17.438 17.438h-74.19c-9.617 0-17.438-7.821-17.438-17.438V46.557h-21.982v180.191h153.03zM339.458 453.44V273.249h-21.771V453.44h21.771zm-8.877-375.178V46.557h-39.314v31.705h39.314zm-59.5 375.178V273.249h-21.877v49.143c0 9.617-7.821 17.438-17.544 17.438h-74.19c-9.617 0-17.438-7.821-17.438-17.438v-49.143H118.05V453.44h153.031zm-56.858-148.486v-31.705h-39.314v31.705h39.314zm-37.73 288.518c0-14.69-12.048-26.738-26.738-26.738s-26.738 12.048-26.738 26.738c0 14.796 12.048 26.738 26.738 26.738s26.738-11.943 26.738-26.738z" fill="#1d1d1b"/><path fill="#283592" d="M601.872 505.859h38.786v58.443h-38.786z"/><path fill="#fe8e00" d="M585.596 273.249h21.771V453.44h-21.771z"/><path d="M539.095 273.249V453.44h-153.03V273.249h21.877v49.143c0 9.617 7.821 17.438 17.544 17.438h74.19c9.617 0 17.438-7.821 17.438-17.438v-49.143h21.981z" fill="#feaa00"/><path d="M477.059 566.734c14.69 0 26.738 12.048 26.738 26.738 0 14.796-12.048 26.738-26.738 26.738-14.796 0-26.738-11.942-26.738-26.738 0-14.691 11.942-26.738 26.738-26.738z" fill="#8fa3ad"/><path fill="#feebb2" d="M442.923 273.249h39.209v31.705h-39.209z"/><path fill="#fe8e00" d="M433.94 46.557h21.877v180.191H433.94zM317.687 273.249h21.771V453.44h-21.771z"/><path fill="#feebb2" d="M291.266 46.557h39.314v31.705h-39.314z"/><path d="M256.391 95.7c0 9.617 7.821 17.438 17.438 17.438h74.19c9.617 0 17.438-7.821 17.438-17.438V46.557h21.982v180.191h-153.03V46.557h21.982V95.7z" fill="#feaa00"/><path fill="#feebb2" d="M174.908 273.249h39.314v31.705h-39.314z"/><path d="M216.97 564.303c-11.308-25.893-37.201-44.07-67.215-44.07V505.86H555.37v58.443h-11.203c-11.202-25.893-37.095-44.07-67.109-44.07-30.014 0-55.907 18.178-67.215 44.07H216.97z" fill="#3949aa"/><path d="M149.755 566.734c14.69 0 26.738 12.048 26.738 26.738 0 14.796-12.048 26.738-26.738 26.738s-26.738-11.942-26.738-26.738c0-14.691 12.048-26.738 26.738-26.738z" fill="#8fa3ad"/><path d="M118.05 453.44V273.249h21.982v49.143c0 9.617 7.821 17.438 17.438 17.438h74.19c9.723 0 17.544-7.821 17.544-17.438v-49.143h21.877V453.44H118.05z" fill="#feaa00"/><path d="M149.755 520.233c-30.014 0-55.907 18.178-67.215 44.07H57.282V505.86h92.474v14.373z" fill="#3949aa"/></svg>