<?xml version="1.0" encoding="UTF-8" standalone="no"?>
<svg
   id="a6241dad-4d20-47a8-b1c7-ab9fd0134b48"
   data-name="Calque 1"
   width="32"
   height="32"
   viewBox="0 0 32 32"
   version="1.1"
   sodipodi:docname="scaleNet.svg"
   inkscape:version="1.2.1 (9c6d41e410, 2022-07-14)"
   xmlns:inkscape="http://www.inkscape.org/namespaces/inkscape"
   xmlns:sodipodi="http://sodipodi.sourceforge.net/DTD/sodipodi-0.dtd"
   xmlns="http://www.w3.org/2000/svg"
   xmlns:svg="http://www.w3.org/2000/svg">
  <defs
     id="defs19">
    <inkscape:path-effect
       effect="fill_between_many"
       method="originald"
       linkedpaths="#circle12,0,1"
       id="path-effect847" />
    <inkscape:path-effect
       effect="fill_between_many"
       method="originald"
       linkedpaths="#circle12,0,1"
       id="path-effect852" />
    <inkscape:path-effect
       effect="fill_between_many"
       method="originald"
       linkedpaths="#circle12,0,1"
       id="path-effect916" />
    <inkscape:path-effect
       effect="fill_between_many"
       method="originald"
       linkedpaths="#circle12,0,1"
       id="path-effect951" />
  </defs>
  <sodipodi:namedview
     id="namedview17"
     pagecolor="#ffffff"
     bordercolor="#000000"
     borderopacity="0.25"
     inkscape:showpageshadow="2"
     inkscape:pageopacity="0.0"
     inkscape:pagecheckerboard="0"
     inkscape:deskcolor="#d1d1d1"
     showgrid="false"
     inkscape:zoom="18.495262"
     inkscape:cx="34.684559"
     inkscape:cy="19.626648"
     inkscape:window-width="1920"
     inkscape:window-height="1009"
     inkscape:window-x="1912"
     inkscape:window-y="79"
     inkscape:window-maximized="1"
     inkscape:current-layer="a6241dad-4d20-47a8-b1c7-ab9fd0134b48" />
  <title
     id="title2">office-76-IconeBalanceAzoteGrainBle</title>
  <path
     id="path4"
     style="fill:currentColor;fill-opacity:1;stroke-width:1.08056"
     d="M 8.2890625 8.9824219 A 2.28 2.6621445 0 0 0 6 11.65625 L 4 27.326172 A 2.29 2.6738206 0 0 0 6.2890625 30 L 25.710938 30 A 2.3 2.6854966 0 0 0 28 27.326172 L 26 11.65625 A 2.29 2.6738206 0 0 0 23.710938 8.9824219 L 8.2890625 8.9824219 z M 8.9960938 11.294922 L 13.744141 11.294922 L 19.361328 20.685547 L 19.361328 11.294922 L 23.003906 11.294922 L 23.003906 27.6875 L 19.175781 27.6875 L 12.638672 16.435547 L 12.638672 27.6875 L 8.9960938 27.6875 L 8.9960938 11.294922 z " />
  <rect
     x="19"
     y="6"
     width="2"
     height="3"
     style="fill:#000000;fill-opacity:1"
     id="rect6" />
  <rect
     x="11"
     y="6"
     width="2"
     height="3"
     style="fill:#0b0000;fill-opacity:1"
     id="rect8" />
  <path
     d="M 4,2.07 C 4,2.07 7,6 8.93,6 h 14 C 24.5,6 28,2.07 28,2.07"
     style="fill:#747892;fill-opacity:1"
     id="path10" />
  <path
     inkscape:original-d="M 0,0"
     inkscape:path-effect="#path-effect951"
     d="M 0,0"
     id="path953"
     class="UnoptimicedTransforms"
     style="fill:#a0a5aa;fill-opacity:1" />
</svg>
