<?xml version="1.0" encoding="UTF-8" standalone="no"?>
<svg
   id="a4e27698-bf50-431a-a6e8-369c89e58bb8"
   data-name="Calque 1"
   width="32"
   height="32"
   viewBox="0 0 32 32"
   version="1.1"
   sodipodi:docname="tournee.svg"
   inkscape:version="1.2.1 (9c6d41e410, 2022-07-14)"
   xmlns:inkscape="http://www.inkscape.org/namespaces/inkscape"
   xmlns:sodipodi="http://sodipodi.sourceforge.net/DTD/sodipodi-0.dtd"
   xmlns="http://www.w3.org/2000/svg"
   xmlns:svg="http://www.w3.org/2000/svg"
   xmlns:rdf="http://www.w3.org/1999/02/22-rdf-syntax-ns#"
   xmlns:cc="http://creativecommons.org/ns#"
   xmlns:dc="http://purl.org/dc/elements/1.1/">
  <defs
     id="defs5785" />
  <sodipodi:namedview
     id="namedview5783"
     pagecolor="#ffffff"
     bordercolor="#000000"
     borderopacity="0.25"
     inkscape:showpageshadow="2"
     inkscape:pageopacity="0.0"
     inkscape:pagecheckerboard="0"
     inkscape:deskcolor="#d1d1d1"
     showgrid="false"
     inkscape:zoom="16.328125"
     inkscape:cx="11.850718"
     inkscape:cy="25.569378"
     inkscape:window-width="2400"
     inkscape:window-height="1261"
     inkscape:window-x="4791"
     inkscape:window-y="100"
     inkscape:window-maximized="1"
     inkscape:current-layer="a4e27698-bf50-431a-a6e8-369c89e58bb8" />
  <title
     id="title5754">vehicles-57-IconeBonTransport</title>
  <g
     id="g5762"
     style="fill:#6f6f6f;fill-opacity:1">
    <path
       d="M25.56,7,20,1.44A1.52,1.52,0,0,0,19,1H5.5A1.5,1.5,0,0,0,4,2.5v27A1.5,1.5,0,0,0,5.5,31h19A1.51,1.51,0,0,0,26,29.72a4.73,4.73,0,0,1-3.73-2.67L17.38,27a4.8,4.8,0,0,1-4.3,2.76,4.72,4.72,0,0,1-4.27-2.71H8.5A2.52,2.52,0,0,1,6,24.53V23a2,2,0,0,1-1.07-1.76V12.83A2.54,2.54,0,0,1,7.44,10.3H22.71a2.53,2.53,0,0,1,2.53,2.53v.33H26V8A1.54,1.54,0,0,0,25.56,7Z"
       style="fill:#6f6f6f;fill-opacity:1"
       id="path5756" />
    <path
       d="M25.47,31.8a2.44,2.44,0,0,1-1,.2A2.44,2.44,0,0,0,25.47,31.8Z"
       style="fill:#6f6f6f;fill-opacity:1"
       id="path5758" />
    <path
       d="M26,29.72A1.51,1.51,0,0,1,24.5,31H5.5A1.5,1.5,0,0,1,4,29.5V2.5A1.5,1.5,0,0,1,5.5,1H19A1.52,1.52,0,0,1,20,1.44L25.56,7A1.54,1.54,0,0,1,26,8v5.12h1V8a2.49,2.49,0,0,0-.73-1.77L20.72.73A2.47,2.47,0,0,0,19,0H5.5A2.5,2.5,0,0,0,3,2.5v27A2.5,2.5,0,0,0,5.5,32h19a2.44,2.44,0,0,0,1-.2A2.5,2.5,0,0,0,27,29.73c-.15,0-.3,0-.46,0A4.9,4.9,0,0,1,26,29.72Z"
       style="fill:#6f6f6f;fill-opacity:1"
       id="path5760" />
  </g>
  <g
     id="g5774"
     transform="matrix(1.048104,0,0,1.1058937,-0.88359484,-1.8536884)">
    <path
       d="m 7.44,12.3 h 15.27 a 0.53,0.53 0 0 1 0.53,0.53 v 1.54 a 0.22,0.22 0 0 0 0,0.08 v 6.79 h -0.52 v 0 H 7.44 v 0 H 6.91 V 12.83 A 0.53,0.53 0 0 1 7.44,12.3"
       style="fill:#00000d;fill-opacity:1"
       id="path5764" />
    <path
       d="m 25.37,25.05 a 1.28,1.28 0 0 1 0.09,-0.52 1.2,1.2 0 0 1 0.47,-0.53 1.16,1.16 0 0 1 0.59,-0.17 1.19,1.19 0 0 1 1.07,0.7 1.16,1.16 0 1 1 -2.22,0.52 M 23.8,24.53 a 2.32,2.32 0 0 0 0,0.46 2.77,2.77 0 0 0 5.53,0.06 3.55,3.55 0 0 0 0,-0.52 2.46,2.46 0 0 0 -0.23,-0.53 2.79,2.79 0 0 0 -1.74,-1.65 2.75,2.75 0 0 0 -1.67,0 2.78,2.78 0 0 0 -1.75,1.65 3.18,3.18 0 0 0 -0.14,0.53 z"
       style="fill:#6f6f6f"
       id="path5766" />
    <path
       d="m 24.84,19.29 v -3.08 h 3.51 a 5,5 0 0 1 1.51,3.08 h -5 M 16.4,24 a 4.52,4.52 0 0 1 0.11,0.53 3.44,3.44 0 0 1 0,0.46 l 6.52,0.06 a 3.74,3.74 0 0 1 0,-0.52 4.52,4.52 0 0 1 0.17,-0.53 3.48,3.48 0 0 1 1.08,-1.65 v 0 a 2.8,2.8 0 0 1 0.79,-0.53 3.28,3.28 0 0 1 0.71,-0.23 3.2,3.2 0 0 1 0.7,-0.07 3.29,3.29 0 0 1 0.71,0.07 3.47,3.47 0 0 1 0.71,0.23 3.78,3.78 0 0 1 0.83,0.53 3.56,3.56 0 0 1 1.12,1.65 4.52,4.52 0 0 1 0.11,0.53 A 3.44,3.44 0 0 1 30,25 l 0.57,0.06 a 0.52,0.52 0 0 0 0.53,-0.52 v -2.72 a 0.52,0.52 0 0 0 -0.14,-0.34 v -1.54 a 6,6 0 0 0 -2.09,-4.67 0.46,0.46 0 0 0 -0.32,-0.11 h -4.23 a 0.53,0.53 0 0 0 -0.39,0.17 v 6.26 a 0.33,0.33 0 0 1 -0.1,0.23 v 0 a 0.24,0.24 0 0 1 -0.21,0.12 h -8.89 a 4.13,4.13 0 0 1 0.59,0.41 3.56,3.56 0 0 1 1.08,1.65 z"
       style="fill:#000000;fill-opacity:1"
       id="path5768" />
    <path
       d="m 11.92,25.05 a 1.28,1.28 0 0 1 0.09,-0.52 1.19,1.19 0 0 1 1.07,-0.7 1.16,1.16 0 0 1 0.59,0.17 1.2,1.2 0 0 1 0.47,0.53 1.16,1.16 0 1 1 -2.22,0.52 m -1.57,-0.52 a 3.42,3.42 0 0 0 0,0.46 2.77,2.77 0 0 0 5.53,0.06 2.55,2.55 0 0 0 0,-0.52 A 3.18,3.18 0 0 0 15.74,24 2.77,2.77 0 0 0 13.16,22.22 2.84,2.84 0 0 0 12.32,22.35 2.77,2.77 0 0 0 10.5,24 2.46,2.46 0 0 0 10.35,24.53 Z"
       style="fill:#6f6f6f"
       id="path5770" />
    <path
       d="m 11.66,21.82 -0.24,0.12 a 4.13,4.13 0 0 0 -0.59,0.41 3.56,3.56 0 0 0 -1.08,1.65 4.52,4.52 0 0 0 -0.11,0.53 3.74,3.74 0 0 0 0,0.52 H 8.5 A 0.52,0.52 0 0 1 8,24.53 v -2.72 h 3.71"
       style="fill:#000000;fill-opacity:1"
       id="path5772" />
  </g>
  <path
     d="M25.7,7.14H19.5v-6A1.62,1.62,0,0,0,19,1H18.5V7.64a.5.5,0,0,0,.5.5h7V8A1.52,1.52,0,0,0,25.7,7.14Z"
     style="fill: #d7d8d9"
     id="path5776" />
  <path
     d="M15.39,4.33H7.47a.5.5,0,0,0-.5.5.5.5,0,0,0,.5.5h7.92a.5.5,0,0,0,.5-.5A.5.5,0,0,0,15.39,4.33Z"
     style="fill: #b8b7b8"
     id="path5778" />
  <path
     d="M15.39,7.33H7.47a.5.5,0,0,0-.5.5.5.5,0,0,0,.5.5h7.92a.5.5,0,0,0,.5-.5A.5.5,0,0,0,15.39,7.33Z"
     style="fill: #b8b7b8"
     id="path5780" />
  <metadata
     id="metadata7256">
    <rdf:RDF>
      <cc:Work
         rdf:about="">
        <dc:title>vehicles-57-IconeBonTransport</dc:title>
      </cc:Work>
    </rdf:RDF>
  </metadata>
</svg>
