<svg xmlns="http://www.w3.org/2000/svg" data-name="Your Icons" viewBox="0 0 48 48"><path fill="#939598" d="M39.62,22.21,37.28,18l0,0,1.57-3.2a3,3,0,0,0-1.38-4L27.7,6.27A2.86,2.86,0,0,0,24,7.4L21.83,11,19.64,7.4A2.91,2.91,0,0,0,17.17,6a2.87,2.87,0,0,0-1.2.27L6.24,10.82a3,3,0,0,0-1.39,4L6.43,18l0,0L4.51,21.39a4,4,0,0,0,1.55,5.45l.33.18v4.83a6,6,0,0,1,3-3.23A5.91,5.91,0,0,1,12,28a6,6,0,0,1,4.81,2.43,6.12,6.12,0,0,1,.43.69c0,.07.09.14.13.22a6.69,6.69,0,0,1,.39,1A5.7,5.7,0,0,1,18,34a6,6,0,0,1-3.49,5.45l4.23,1.89a7.59,7.59,0,0,0,6.19,0l10-4.49a4,4,0,0,0,2.32-3.62V26.94l1.12-.61A3,3,0,0,0,39.62,22.21Zm-33-9a.94.94,0,0,1,.48-.54l9.74-4.55A.85.85,0,0,1,17.17,8a.88.88,0,0,1,.76.44l1.9,3.15v.15L8.28,17.26,6.65,14A1,1,0,0,1,6.6,13.17ZM12,26a7.94,7.94,0,0,0-2.53.41L7,25.08a1.9,1.9,0,0,1-.94-1.17,2,2,0,0,1,.18-1.55l.94-1.68,12.63,6.46v.29l-.91,1.88a2.39,2.39,0,0,1-.21.34A8,8,0,0,0,12,26Zm8.83,13.9a5.32,5.32,0,0,1-1.27-.39L18.28,39A8,8,0,0,0,20,34a7.62,7.62,0,0,0-.32-2.21,1.21,1.21,0,0,0-.05-.18,4.12,4.12,0,0,0,1.15-1.42l0-.12Zm0-14.49L8.77,19.24l12.06-5.76Zm1,.51Zm2-14.33,1.91-3.15A.88.88,0,0,1,26.49,8a.86.86,0,0,1,.36.08l9.74,4.55a.94.94,0,0,1,.48.54A1.06,1.06,0,0,1,37,14l-1.63,3.3L23.83,11.74Zm-1,1.89,12.06,5.76L22.83,25.4ZM35.28,33.23A1.94,1.94,0,0,1,34.14,35l-10,4.49a5.26,5.26,0,0,1-1.28.39V30.07a4,4,0,0,0,3.31,2.31h.29a3.71,3.71,0,0,0,1.85-.49l7-3.83ZM38,24a1,1,0,0,1-.47.57h-.05L27.27,30.14a1.75,1.75,0,0,1-.86.22,1.84,1.84,0,0,1-1.66-1.06l-.92-1.87v-.29l12.64-6.46,1.4,2.51A1.06,1.06,0,0,1,38,24Z"/><path fill="#00aeef" d="M12,26a8,8,0,1,0,8,8A8,8,0,0,0,12,26Z"/><path fill="#fff" d="M13.41 35.4a2.06 2.06 0 0 1-2.83 0 .65.65 0 0 0-.15-.1l.32-.33c.41-.41.29-1-.17-1h-.1l-1.55.23a.88.88 0 0 0-.69.69L8 36.48a.42.42 0 0 0 .42.52A.79.79 0 0 0 9 36.75l.09-.09c0 .05.06.11.1.15a4 4 0 0 0 5.66 0 1 1 0 0 0-1.41-1.41zM15.57 31a.79.79 0 0 0-.54.25l-.09.09a.71.71 0 0 0-.12-.18 4 4 0 0 0-5.66 0 1 1 0 0 0 0 1.41 1 1 0 0 0 1.42 0 2.06 2.06 0 0 1 2.83 0 1.13 1.13 0 0 0 .18.12l-.34.34c-.41.41-.29 1 .17 1h.1l1.55-.23a.88.88 0 0 0 .69-.69L16 31.52A.42.42 0 0 0 15.57 31z"/></svg>